<svg 
 xmlns="http://www.w3.org/2000/svg"
 xmlns:xlink="http://www.w3.org/1999/xlink"
 width="55px" height="56px">
<defs>
<filter filterUnits="userSpaceOnUse" id="Filter_0" x="0px" y="0px" width="55px" height="56px"  >
    <feOffset in="SourceAlpha" dx="0.262" dy="4.993" />
    <feGaussianBlur result="blurOut" stdDeviation="0" />
    <feFlood flood-color="rgb(92, 92, 92)" result="floodOut" />
    <feComposite operator="atop" in="floodOut" in2="blurOut" />
    <feComponentTransfer><feFuncA type="linear" slope="0.55"/></feComponentTransfer>
    <feMerge>
    <feMergeNode/>
    <feMergeNode in="SourceGraphic"/>
  </feMerge>
</filter>
<filter id="Filter_1">
    <feFlood flood-color="rgb(255, 255, 255)" flood-opacity="1" result="floodOut" />
    <feComposite operator="atop" in="floodOut" in2="SourceGraphic" result="compOut" />
    <feBlend mode="normal" in="compOut" in2="SourceGraphic" />
</filter>

</defs>
<g filter="url(#Filter_0)">
<g filter="url(#Filter_1)">
<path fill-rule="evenodd"  fill="rgb(255, 255, 255)"
 d="M10.567,0.074 L44.937,0.074 C50.460,0.074 54.937,4.551 54.937,10.074 L54.937,40.038 C54.937,45.561 50.460,50.038 44.937,50.038 L10.567,50.038 C5.044,50.038 0.566,45.561 0.566,40.038 L0.566,10.074 C0.566,4.551 5.044,0.074 10.567,0.074 Z"/>
</g></g>
<path fill-rule="evenodd"  fill="rgb(34, 37, 44)"
 d="M48.252,10.951 C48.183,10.776 48.024,10.652 47.837,10.629 C47.650,10.607 47.465,10.688 47.356,10.841 C46.707,11.750 45.855,12.054 44.868,12.405 C44.072,12.688 43.249,12.981 42.359,13.619 C41.101,14.521 40.526,15.752 40.813,16.917 L40.782,16.957 C40.257,16.195 39.685,15.491 39.082,14.862 C36.260,11.920 32.317,10.151 28.263,10.010 C28.085,10.003 27.903,10.000 27.724,10.000 C23.197,10.000 18.865,12.022 15.837,15.547 C12.825,19.054 11.491,23.619 12.175,28.071 C12.232,28.443 12.304,28.820 12.388,29.189 C13.501,34.085 16.344,37.809 20.188,39.406 C21.136,39.800 22.091,40.000 23.029,40.000 C25.357,40.000 27.391,38.755 28.608,36.586 C29.071,35.761 29.370,34.907 29.496,34.049 C29.570,33.542 29.519,33.036 29.470,32.545 C29.420,32.040 29.372,31.563 29.448,31.082 C29.623,29.981 30.393,29.324 31.508,29.324 C31.825,29.324 32.149,29.375 32.472,29.479 C32.093,30.173 31.750,30.835 31.449,31.450 C30.812,32.751 30.372,33.830 30.143,34.654 C30.001,35.162 29.624,36.513 30.543,37.150 C30.834,37.352 31.204,37.423 31.589,37.352 C31.936,37.287 32.991,37.091 35.990,33.681 C36.794,32.765 37.662,31.706 38.568,30.532 C40.895,29.748 42.706,27.800 43.185,25.560 C43.305,25.001 43.355,24.402 43.334,23.780 C44.205,22.434 44.969,21.179 45.738,19.829 C45.753,19.803 45.767,19.775 45.781,19.747 C46.898,19.442 47.859,18.574 48.424,17.360 C49.247,15.589 49.187,13.313 48.252,10.951 L48.252,10.951 ZM35.673,19.338 C35.269,19.978 34.575,20.361 33.816,20.361 C33.404,20.361 33.001,20.244 32.651,20.024 C32.155,19.712 31.811,19.227 31.681,18.656 C31.552,18.086 31.652,17.500 31.964,17.005 C32.368,16.364 33.062,15.981 33.820,15.981 C34.233,15.981 34.635,16.098 34.986,16.319 C35.481,16.630 35.825,17.116 35.955,17.686 C36.084,18.256 35.984,18.843 35.673,19.338 L35.673,19.338 ZM38.517,23.305 C39.624,21.674 40.796,20.053 41.909,18.611 C42.089,18.773 42.291,18.932 42.509,19.084 C42.872,19.335 43.250,19.529 43.637,19.662 C42.698,21.267 41.687,22.858 40.464,24.658 C38.455,27.616 36.365,30.365 34.580,32.397 C33.584,33.531 32.711,34.407 32.039,34.950 C32.298,34.121 32.794,32.982 33.484,31.634 C34.718,29.223 36.506,26.265 38.517,23.305 L38.517,23.305 ZM19.066,23.291 C18.654,23.291 18.251,23.174 17.900,22.954 C17.405,22.642 17.061,22.157 16.931,21.586 C16.802,21.016 16.902,20.429 17.214,19.934 C17.618,19.294 18.311,18.911 19.070,18.911 C19.483,18.911 19.886,19.028 20.236,19.248 C21.258,19.892 21.566,21.246 20.923,22.268 C20.519,22.908 19.825,23.291 19.066,23.291 L19.066,23.291 ZM16.769,28.112 C17.173,27.471 17.866,27.089 18.626,27.089 C19.038,27.089 19.440,27.205 19.791,27.426 C20.286,27.738 20.630,28.223 20.760,28.794 C20.890,29.364 20.790,29.950 20.477,30.445 C20.074,31.086 19.380,31.468 18.621,31.468 C18.209,31.468 17.806,31.352 17.455,31.131 C16.960,30.819 16.616,30.334 16.486,29.764 C16.357,29.194 16.457,28.607 16.769,28.112 L16.769,28.112 ZM23.787,15.109 C24.190,14.468 24.884,14.085 25.643,14.085 C26.055,14.085 26.458,14.202 26.808,14.422 C27.831,15.065 28.139,16.420 27.495,17.441 C27.091,18.082 26.398,18.465 25.639,18.465 C25.227,18.465 24.824,18.348 24.473,18.128 C23.978,17.816 23.634,17.331 23.504,16.760 C23.375,16.190 23.475,15.603 23.787,15.109 L23.787,15.109 Z"/>
</svg>