<svg 
 xmlns="http://www.w3.org/2000/svg"
 xmlns:xlink="http://www.w3.org/1999/xlink"
 width="213px" height="57px">
<defs>
<filter filterUnits="userSpaceOnUse" id="Filter_0" x="0px" y="0px" width="213px" height="57px"  >
    <feOffset in="SourceAlpha" dx="0.314" dy="5.992" />
    <feGaussianBlur result="blurOut" stdDeviation="0" />
    <feFlood flood-color="rgb(99, 38, 135)" result="floodOut" />
    <feComposite operator="atop" in="floodOut" in2="blurOut" />
    <feComponentTransfer><feFuncA type="linear" slope="1"/></feComponentTransfer>
    <feMerge>
    <feMergeNode/>
    <feMergeNode in="SourceGraphic"/>
  </feMerge>
</filter>

</defs>
<g filter="url(#Filter_0)">
<path fill-rule="evenodd"  fill="rgb(143, 68, 187)"
 d="M15.575,0.861 L197.710,0.861 C205.995,0.861 212.710,7.576 212.710,15.861 L212.710,35.825 C212.710,44.109 205.995,50.825 197.710,50.825 L15.575,50.825 C7.291,50.825 0.575,44.109 0.575,35.825 L0.575,15.861 C0.575,7.576 7.291,0.861 15.575,0.861 Z"/>
</g>
<path fill-rule="evenodd"  fill="rgb(255, 255, 255)"
 d="M52.607,38.000 L35.389,38.000 C34.618,38.000 33.999,37.370 33.999,36.591 L33.999,30.385 L36.774,30.385 L36.774,35.181 L51.220,35.181 L51.220,30.385 L53.997,30.385 L53.997,36.591 C53.997,37.370 53.375,38.000 52.607,38.000 ZM44.407,29.951 C44.067,30.296 43.744,29.910 43.744,29.910 L39.770,25.028 C39.770,25.028 39.164,24.450 39.821,24.450 L42.061,24.450 L42.061,17.345 C42.061,17.345 41.969,17.000 42.485,17.000 L45.636,17.000 C46.007,17.000 46.000,17.291 46.000,17.291 L46.000,24.303 L48.067,24.303 C48.862,24.303 48.263,24.909 48.263,24.909 C48.263,24.909 44.882,29.472 44.407,29.951 Z"/>
<text kerning="auto" font-family="Myriad Pro" fill="rgb(0, 0, 0)" transform="matrix( 0.95723825789625, 0, 0, 0.95723825789625,77.4403944553023, 35.15790606317)" font-size="21.764px"><tspan font-size="21.764px" font-family="Poppins" fill="#FFFFFF">Download</tspan></text>
</svg>