<svg 
 xmlns="http://www.w3.org/2000/svg"
 xmlns:xlink="http://www.w3.org/1999/xlink"
 width="58px" height="58px">
<defs>
<filter filterUnits="userSpaceOnUse" id="Filter_0" x="0px" y="0px" width="58px" height="58px"  >
    <feOffset in="SourceAlpha" dx="0.262" dy="4.993" />
    <feGaussianBlur result="blurOut" stdDeviation="0" />
    <feFlood flood-color="rgb(1, 93, 51)" result="floodOut" />
    <feComposite operator="atop" in="floodOut" in2="blurOut" />
    <feComponentTransfer><feFuncA type="linear" slope="1"/></feComponentTransfer>
    <feMerge>
    <feMergeNode/>
    <feMergeNode in="SourceGraphic"/>
  </feMerge>
</filter>
<linearGradient id="PSgrad_0" x1="61.566%" x2="0%" y1="78.801%" y2="0%">
  <stop offset="0%" stop-color="rgb(66,235,92)" stop-opacity="1" />
  <stop offset="100%" stop-color="rgb(55,179,74)" stop-opacity="1" />
</linearGradient>
<filter filterUnits="userSpaceOnUse" id="Filter_1" x="13px" y="12px" width="33px" height="33px"  >
    <feOffset in="SourceAlpha" dx="0.157" dy="2.996" />
    <feGaussianBlur result="blurOut" stdDeviation="1" />
    <feFlood flood-color="rgb(1, 93, 51)" result="floodOut" />
    <feComposite operator="atop" in="floodOut" in2="blurOut" />
    <feComponentTransfer><feFuncA type="linear" slope="0.61"/></feComponentTransfer>
    <feMerge>
    <feMergeNode/>
    <feMergeNode in="SourceGraphic"/>
  </feMerge>
</filter>

</defs>
<g filter="url(#Filter_0)">
<path fill-rule="evenodd"  fill="rgb(235, 238, 243)"
 d="M10.128,0.401 L47.112,0.401 C52.635,0.401 57.112,4.878 57.112,10.401 L57.112,42.421 C57.112,47.944 52.635,52.421 47.112,52.421 L10.128,52.421 C4.605,52.421 0.128,47.944 0.128,42.421 L0.128,10.401 C0.128,4.878 4.605,0.401 10.128,0.401 Z"/>
</g>
<path fill="url(#PSgrad_0)"
 d="M10.128,0.401 L47.112,0.401 C52.635,0.401 57.112,4.878 57.112,10.401 L57.112,42.421 C57.112,47.944 52.635,52.421 47.112,52.421 L10.128,52.421 C4.605,52.421 0.128,47.944 0.128,42.421 L0.128,10.401 C0.128,4.878 4.605,0.401 10.128,0.401 Z"/>
<g filter="url(#Filter_1)">
<text kerning="auto" font-family="Myriad Pro" fill="rgb(0, 0, 0)" transform="matrix( 0.87866015000155, 0, 0, 0.87866015000155,16.2761647424767, 39.5071607812497)" font-size="58.333px"><tspan font-size="58.333px" font-family="Poppins" fill="#EBEEF3">&#43;</tspan></text>
</g>
</svg>